HIERARCHY
ROOT Hips
{
	OFFSET 0.000000 0.000000 0.000000
	CHANNELS 6 Xposition Yposition Zposition Xrotation Yrotation Zrotation
	JOINT LeftUpLeg_virtual
	{
		OFFSET 0.000000 0.000000 0.000000
		CHANNELS 3 Xrotation Yrotation Zrotation
		JOINT LeftUpLeg
		{
			OFFSET 13.026900 -6.336304 -1.092800
			CHANNELS 3 Xrotation Yrotation Zrotation
			JOINT LeftLeg
			{
				OFFSET 0.524474 -46.096886 9.782700
				CHANNELS 3 Xrotation Yrotation Zrotation
				JOINT LeftFoot
				{
					OFFSET -0.524474 -53.427422 -12.948200
					CHANNELS 3 Xrotation Yrotation Zrotation
					JOINT LeftToeBase
					{
						OFFSET 0.192200 -14.009700 16.364100
						CHANNELS 3 Xrotation Yrotation Zrotation
						JOINT LeftToe_End
						{
							OFFSET -1.784700 -0.561700 9.474800
							CHANNELS 3 Xrotation Yrotation Zrotation
							End Site
							{
								OFFSET 0 0 0
							}
						}
					}
				}
			}
		}
	}
	JOINT RightUpLeg_virtual
	{
		OFFSET 0.000000 0.000000 0.000000
		CHANNELS 3 Xrotation Yrotation Zrotation
		JOINT RightUpLeg
		{
			OFFSET -12.883000 -6.336304 -1.092800
			CHANNELS 3 Xrotation Yrotation Zrotation
			JOINT RightLeg
			{
				OFFSET -0.524587 -46.096825 9.782800
				CHANNELS 3 Xrotation Yrotation Zrotation
				JOINT RightFoot
				{
					OFFSET 0.524587 -53.427383 -12.948300
					CHANNELS 3 Xrotation Yrotation Zrotation
					JOINT RightToeBase
					{
						OFFSET -0.192200 -14.009700 16.364100
						CHANNELS 3 Xrotation Yrotation Zrotation
						JOINT RightToe_End
						{
							OFFSET 1.784700 -0.561700 9.474800
							CHANNELS 3 Xrotation Yrotation Zrotation
							End Site
							{
								OFFSET 0 0 0
							}
						}
					}
				}
			}
		}
	}
	JOINT Spine_virtual
	{
		OFFSET 0.000000 0.000000 0.000000
		CHANNELS 3 Xrotation Yrotation Zrotation
		JOINT Spine
		{
			OFFSET 0.072000 7.257294 -0.789700
			CHANNELS 3 Xrotation Yrotation Zrotation
			JOINT Spine1
			{
				OFFSET 0.000000 12.508769 -0.658067
				CHANNELS 3 Xrotation Yrotation Zrotation
				JOINT Spine1_split
				{
					OFFSET 0.000000 12.508769 -0.658067
					CHANNELS 3 Xrotation Yrotation Zrotation
					JOINT Spine2
					{
						OFFSET 0.000000 12.508769 -0.658067
						CHANNELS 3 Xrotation Yrotation Zrotation
						JOINT Neck_virtual
						{
							OFFSET 0.000000 0.000000 0.000000
							CHANNELS 3 Xrotation Yrotation Zrotation
							JOINT Neck
							{
								OFFSET 0.000000 14.033295 7.520400
								CHANNELS 3 Xrotation Yrotation Zrotation
								JOINT Head
								{
									OFFSET 0.000000 8.198502 5.703100
									CHANNELS 3 Xrotation Yrotation Zrotation
									JOINT HeadTop_End
									{
										OFFSET 0.000000 17.760803 13.332701
										CHANNELS 3 Xrotation Yrotation Zrotation
										End Site
										{
											OFFSET 0 0 0
										}
									}
								}
							}
						}
						JOINT LeftShoulder_virtual
						{
							OFFSET 0.000000 0.000000 0.000000
							CHANNELS 3 Xrotation Yrotation Zrotation
							JOINT LeftShoulder
							{
								OFFSET 6.292450 5.785301 -0.669000
								CHANNELS 3 Xrotation Yrotation Zrotation
								JOINT LeftShoulder_split
								{
									OFFSET 6.292450 5.785301 -0.669000
									CHANNELS 3 Xrotation Yrotation Zrotation
									JOINT LeftArm
									{
										OFFSET 13.907140 -6.093903 1.965100
										CHANNELS 3 Xrotation Yrotation Zrotation
										JOINT LeftForeArm
										{
											OFFSET 34.140198 0.000000 0.000000
											CHANNELS 3 Xrotation Yrotation Zrotation
											JOINT LeftHand
											{
												OFFSET 40.960209 0.000000 0.000000
												CHANNELS 3 Xrotation Yrotation Zrotation
												End Site
												{
													OFFSET 0 0 0
												}
											}
										}
									}
								}
							}
						}
						JOINT RightShoulder_virtual
						{
							OFFSET 0.000000 0.000000 0.000000
							CHANNELS 3 Xrotation Yrotation Zrotation
							JOINT RightShoulder
							{
								OFFSET -6.292450 5.785301 -0.669000
								CHANNELS 3 Xrotation Yrotation Zrotation
								JOINT RightShoulder_split
								{
									OFFSET -6.292450 5.785301 -0.669000
									CHANNELS 3 Xrotation Yrotation Zrotation
									JOINT RightArm
									{
										OFFSET -13.907140 -6.093903 1.965100
										CHANNELS 3 Xrotation Yrotation Zrotation
										JOINT RightForeArm
										{
											OFFSET -34.140198 0.000000 0.000000
											CHANNELS 3 Xrotation Yrotation Zrotation
											JOINT RightHand
											{
												OFFSET -40.960209 0.000000 0.000000
												CHANNELS 3 Xrotation Yrotation Zrotation
												End Site
												{
													OFFSET 0 0 0
												}
											}
										}
									}
								}
							}
						}
					}
				}
			}
		}
	}
}
MOTION
Frames: 4
Frame Time: 0.03333333
-0.111721 94.923019 3.689266 0.000000 0.000000 0.000000 6.869694 -51.289185 8.154825 -62.041402 26.109682 36.716560 45.426813 -16.288960 4.887593 3.674094 2.788377 -10.437850 -1.918065 -4.040111 0.402885 0.000000 0.000000 0.000000 3.850309 -50.708865 7.588081 -29.187577 1.509006 -24.243960 44.451001 3.600779 -8.440206 -18.223568 -1.607434 23.663715 0.639574 2.597539 1.856191 0.000000 0.000000 0.000000 9.090407 -50.399607 9.352143 13.131119 2.541619 -3.231217 4.457743 6.619684 -3.686860 0.402804 -2.514300 1.285936 0.000000 0.000000 0.000000 -4.170756 6.224476 -2.045249 0.985956 10.743986 -1.120679 -5.201767 24.630757 -1.617675 0.000000 0.000000 0.000000 -5.481804 6.232095 -2.385586 -1.327571 -10.095029 -4.409315 4.065670 -0.868346 -0.457708 -14.534564 1.752377 -44.119327 -23.197947 -27.708030 -15.600514 0.000000 0.000000 0.000000 -5.137080 5.882804 -2.305066 -2.611321 13.079965 0.756034 -1.894535 -4.495724 2.625319 0.006595 -14.598882 58.657350 -10.237352 44.394327 18.348391 0.000000 0.000000 0.000000 
-0.192240 94.958527 3.606079 0.000000 0.000000 0.000000 7.124986 -51.725152 8.167368 -61.918738 25.958168 36.990023 45.538722 -16.417574 4.944816 3.028070 2.525714 -10.070907 -1.814265 -3.999672 0.413668 0.000000 0.000000 0.000000 4.110218 -50.612364 7.505198 -29.141569 1.756516 -23.947615 44.361297 3.700022 -8.440073 -18.265920 -1.363277 24.087765 0.352656 2.668877 1.791112 0.000000 0.000000 0.000000 9.198792 -50.661514 9.324423 13.125353 2.576977 -3.404430 4.533415 6.614406 -3.779481 0.547574 -2.440950 1.337553 0.000000 0.000000 0.000000 -4.199697 6.244005 -2.096334 0.671769 10.706211 -1.178084 -5.299935 24.729523 -1.606493 0.000000 0.000000 0.000000 -5.317745 6.255046 -2.446914 -1.337967 -10.127603 -4.308941 3.937574 -0.838774 -0.175489 -14.443072 1.802162 -43.759745 -23.143739 -27.521513 -15.607358 0.000000 0.000000 0.000000 -5.125525 5.881018 -2.437660 -2.501690 13.749770 0.937099 -1.271419 -4.906846 1.923253 0.322324 -14.889049 56.435258 -7.387443 40.724381 16.822455 0.000000 0.000000 0.000000 
-0.249099 94.938766 3.256966 0.000000 0.000000 0.000000 7.690149 -52.306343 8.334912 -61.368560 25.869355 37.257405 45.135239 -16.479298 4.864437 2.160684 2.428671 -9.933839 -1.800655 -3.896806 0.411758 0.000000 0.000000 0.000000 4.417248 -50.893013 7.480270 -29.645705 1.957675 -23.520246 44.438119 3.479178 -8.459139 -18.004664 -0.895734 24.324179 0.293271 2.659412 1.837607 0.000000 0.000000 0.000000 9.474371 -50.965294 9.356575 13.126847 2.695618 -3.538725 4.695584 6.623140 -3.919309 0.434672 -2.426415 1.335654 0.000000 0.000000 0.000000 -4.119180 6.258542 -2.223817 0.287216 10.638407 -1.264437 -5.266820 24.752812 -1.709340 0.000000 0.000000 0.000000 -5.049733 6.250543 -2.617979 -1.341876 -9.952205 -4.178546 3.813313 -0.812026 0.026179 -14.834758 1.938297 -43.164893 -22.885128 -27.300611 -15.440852 0.000000 0.000000 0.000000 -5.047653 5.896774 -2.665711 -2.544354 14.479053 1.172247 -1.053775 -4.882884 1.270609 1.224063 -15.625818 54.537373 -1.476730 37.224948 13.423351 0.000000 0.000000 0.000000 
-0.370460 94.842400 2.700481 0.000000 0.000000 0.000000 8.358937 -52.772480 8.582627 -60.628611 25.868510 37.532842 44.321832 -16.529778 4.679943 1.725164 2.373459 -10.151909 -1.935525 -3.745412 0.356461 0.000000 0.000000 0.000000 4.810018 -51.209849 7.594401 -30.580734 2.147007 -23.113365 44.961441 2.866012 -8.510676 -17.592949 -0.371839 24.435505 0.326975 2.549556 1.960399 0.000000 0.000000 0.000000 9.751923 -51.066329 9.439994 13.115433 2.861397 -3.602075 4.900297 6.617782 -4.104650 0.255552 -2.636303 1.252241 0.000000 0.000000 0.000000 -3.931671 6.234356 -2.425096 -0.087114 10.540511 -1.383604 -5.072821 24.651143 -1.922204 0.000000 0.000000 0.000000 -4.760776 6.204264 -2.880714 -1.335574 -9.550790 -3.968608 3.657609 -1.027293 0.160096 -15.703611 2.012298 -42.520407 -22.438136 -27.068952 -15.155759 0.000000 0.000000 0.000000 -4.921148 5.883218 -2.942774 -2.692160 15.225412 1.543853 -0.977370 -4.882302 0.801214 2.736475 -16.009811 53.181424 5.966577 34.804513 9.263521 0.000000 0.000000 0.000000 
